<svg xmlns="http://www.w3.org/2000/svg" xmlns:xlink="http://www.w3.org/1999/xlink" preserveAspectRatio="xMidYMid" width="888" height="137" viewBox="0 0 888 137">
  <defs>
    <style>
      .cls-1, .cls-5, .cls-6 {
        fill: #fff;
      }

      .cls-2 {
        fill: #434343;
      }

      .cls-2, .cls-3, .cls-4, .cls-5, .cls-6 {
        fill-rule: evenodd;
      }

      .cls-3 {
        fill: #444;
      }

      .cls-4 {
        fill: #2067d9;
      }

      .cls-5 {
        opacity: 0.62;
      }
    </style>
  </defs>
  <g>
    <rect width="888" height="137" class="cls-1"/>
    <path d="M425.254,60.635 L425.254,71.113 L419.455,71.113 L419.455,50.197 L425.254,50.197 L425.254,54.196 C426.574,51.397 428.614,49.917 432.013,49.877 L432.013,55.276 C427.734,55.236 425.254,56.636 425.254,60.635 ZM409.249,68.594 C408.050,70.273 406.210,71.553 402.930,71.553 C399.131,71.553 395.932,69.714 395.932,65.314 C395.932,60.435 400.411,58.595 406.810,58.595 L409.169,58.595 L409.169,57.756 C409.169,55.276 408.409,53.916 405.770,53.916 C403.490,53.916 402.451,55.076 402.211,56.876 L396.731,56.876 C397.091,51.917 401.011,49.717 406.130,49.717 C411.249,49.717 414.888,51.797 414.888,57.476 L414.888,71.113 L409.249,71.113 L409.249,68.594 ZM409.169,62.035 L406.930,62.035 C403.570,62.035 401.611,62.755 401.611,64.994 C401.611,66.514 402.530,67.514 404.650,67.514 C407.210,67.514 409.169,66.114 409.169,63.795 L409.169,62.035 ZM383.269,71.113 L371.511,71.113 L371.511,42.518 L382.750,42.518 C388.988,42.518 392.228,45.078 392.228,49.957 L392.228,50.117 C392.228,53.116 390.788,55.316 387.589,56.236 C391.308,56.996 393.308,59.115 393.308,62.955 L393.308,63.115 C393.308,68.354 389.868,71.113 383.269,71.113 ZM386.069,50.437 C386.069,48.037 384.709,46.957 381.670,46.957 L377.830,46.957 L377.830,54.276 L381.710,54.276 C384.829,54.276 386.069,53.156 386.069,50.597 L386.069,50.437 ZM386.909,62.435 C386.909,59.795 385.469,58.435 381.950,58.435 L377.830,58.435 L377.830,66.634 L382.270,66.634 C385.469,66.634 386.909,65.194 386.909,62.595 L386.909,62.435 ZM349.110,71.553 C345.871,71.553 343.511,69.953 342.431,67.794 L342.431,71.113 L336.632,71.113 L336.632,40.718 L342.431,40.718 L342.431,53.476 C343.591,51.477 346.031,49.717 349.110,49.717 C354.229,49.717 358.229,53.516 358.229,60.435 L358.229,60.755 C358.229,67.674 354.309,71.553 349.110,71.553 ZM352.350,60.475 C352.350,56.236 350.270,54.156 347.351,54.156 C344.311,54.156 342.231,56.276 342.231,60.475 L342.231,60.795 C342.231,64.994 344.231,67.034 347.391,67.034 C350.590,67.034 352.350,64.874 352.350,60.795 L352.350,60.475 ZM326.427,68.594 C325.227,70.273 323.387,71.553 320.108,71.553 C316.308,71.553 313.109,69.714 313.109,65.314 C313.109,60.435 317.588,58.595 323.987,58.595 L326.347,58.595 L326.347,57.756 C326.347,55.276 325.587,53.916 322.947,53.916 C320.667,53.916 319.628,55.076 319.388,56.876 L313.909,56.876 C314.269,51.917 318.188,49.717 323.307,49.717 C328.426,49.717 332.066,51.797 332.066,57.476 L332.066,71.113 L326.427,71.113 L326.427,68.594 ZM326.347,62.035 L324.107,62.035 C320.747,62.035 318.788,62.755 318.788,64.994 C318.788,66.514 319.708,67.514 321.827,67.514 C324.387,67.514 326.347,66.114 326.347,63.795 L326.347,62.035 ZM306.435,71.113 L299.916,71.113 L299.916,47.557 L292.197,47.557 L292.197,42.518 L314.154,42.518 L314.154,47.557 L306.435,47.557 L306.435,71.113 ZM271.236,67.434 C273.916,67.434 275.236,66.274 275.596,64.514 L281.075,64.514 C280.395,69.034 276.796,71.553 271.077,71.553 C264.758,71.553 260.158,67.594 260.158,60.915 L260.158,60.595 C260.158,53.996 264.838,49.717 270.917,49.717 C276.316,49.717 281.115,52.876 281.115,60.355 L281.115,61.955 L266.037,61.955 C266.197,65.434 268.077,67.434 271.236,67.434 ZM275.476,58.395 C275.276,55.236 273.676,53.716 270.917,53.716 C268.317,53.716 266.557,55.436 266.117,58.395 L275.476,58.395 ZM245.494,71.113 L237.855,50.197 L244.054,50.197 L249.053,65.154 L254.012,50.197 L259.611,50.197 L252.012,71.113 L245.494,71.113 ZM232.366,47.357 C230.527,47.357 229.087,45.997 229.087,44.198 C229.087,42.398 230.527,41.038 232.366,41.038 C234.246,41.038 235.686,42.398 235.686,44.198 C235.686,45.997 234.246,47.357 232.366,47.357 ZM222.634,71.513 C218.234,71.513 215.875,69.274 215.875,64.914 L215.875,54.316 L213.195,54.316 L213.195,50.197 L215.875,50.197 L215.875,45.678 L221.634,45.678 L221.634,50.197 L226.033,50.197 L226.033,54.316 L221.634,54.316 L221.634,64.394 C221.634,66.074 222.474,66.874 223.953,66.874 C224.833,66.874 225.473,66.754 226.153,66.474 L226.153,70.953 C225.353,71.233 224.193,71.513 222.634,71.513 ZM202.621,71.553 C199.382,71.553 197.022,69.953 195.942,67.914 L195.942,78.232 L190.143,78.232 L190.143,50.197 L195.942,50.197 L195.942,53.476 C197.102,51.477 199.542,49.717 202.621,49.717 C207.740,49.717 211.740,53.516 211.740,60.435 L211.740,60.755 C211.740,67.674 207.820,71.553 202.621,71.553 ZM205.861,60.475 C205.861,56.236 203.781,54.156 200.861,54.156 C197.822,54.156 195.742,56.276 195.742,60.475 L195.742,60.795 C195.742,64.994 197.742,67.034 200.901,67.034 C204.101,67.034 205.861,64.874 205.861,60.795 L205.861,60.475 ZM179.937,68.594 C178.738,70.273 176.898,71.553 173.618,71.553 C169.819,71.553 166.620,69.714 166.620,65.314 C166.620,60.435 171.099,58.595 177.498,58.595 L179.857,58.595 L179.857,57.756 C179.857,55.276 179.098,53.916 176.458,53.916 C174.178,53.916 173.139,55.076 172.899,56.876 L167.419,56.876 C167.779,51.917 171.699,49.717 176.818,49.717 C181.937,49.717 185.576,51.797 185.576,57.476 L185.576,71.113 L179.937,71.113 L179.937,68.594 ZM179.857,62.035 L177.618,62.035 C174.258,62.035 172.299,62.755 172.299,64.994 C172.299,66.514 173.218,67.514 175.338,67.514 C177.898,67.514 179.857,66.114 179.857,63.795 L179.857,62.035 ZM157.329,67.634 C156.249,69.754 153.690,71.553 150.610,71.553 C145.531,71.553 141.532,67.914 141.532,60.955 L141.532,60.635 C141.532,53.756 145.491,49.717 150.730,49.717 C154.090,49.717 156.169,51.197 157.329,53.316 L157.329,40.718 L163.088,40.718 L163.088,71.113 L157.329,71.113 L157.329,67.634 ZM157.489,60.435 C157.489,56.276 155.649,54.156 152.490,54.156 C149.251,54.156 147.451,56.356 147.451,60.515 L147.451,60.835 C147.451,64.994 149.451,67.034 152.330,67.034 C155.370,67.034 157.489,64.994 157.489,60.755 L157.489,60.435 ZM131.377,64.754 L121.019,64.754 L119.059,71.113 L112.980,71.113 L122.379,42.518 L130.817,42.518 L140.096,71.113 L133.337,71.113 L131.377,64.754 ZM126.218,47.797 L122.419,60.155 L129.978,60.155 L126.218,47.797 ZM235.286,71.113 L229.527,71.113 L229.527,50.197 L235.286,50.197 L235.286,71.113 Z" class="cls-2"/>
    <path d="M282.491,101.267 C281.523,101.267 280.753,100.519 280.753,99.551 C280.753,98.583 281.523,97.813 282.491,97.813 C283.481,97.813 284.252,98.583 284.252,99.551 C284.252,100.519 283.481,101.267 282.491,101.267 ZM273.703,99.287 C275.111,99.287 276.321,98.451 276.475,96.823 L278.918,96.823 C278.720,99.463 276.717,101.333 273.593,101.333 C270.292,101.333 267.784,99.177 267.784,95.502 L267.784,95.326 C267.784,91.674 270.380,89.364 273.593,89.364 C276.145,89.364 278.544,90.508 278.852,93.676 L276.277,93.676 C276.057,92.136 275.045,91.498 273.637,91.498 C271.811,91.498 270.512,92.906 270.512,95.282 L270.512,95.458 C270.512,97.967 271.745,99.287 273.703,99.287 ZM262.983,94.116 C262.983,92.378 262.279,91.586 260.695,91.586 C259.198,91.586 257.988,92.510 257.988,94.336 L257.988,101.113 L255.326,101.113 L255.326,89.606 L257.988,89.606 L257.988,91.432 C258.538,90.310 259.815,89.364 261.707,89.364 C264.017,89.364 265.645,90.706 265.645,93.874 L265.645,101.113 L262.983,101.113 L262.983,94.116 ZM249.140,85.381 L252.088,85.381 L252.088,101.113 L249.140,101.113 L249.140,85.381 ZM237.877,94.116 C237.877,92.378 237.173,91.586 235.589,91.586 C234.093,91.586 232.883,92.510 232.883,94.336 L232.883,101.113 L230.220,101.113 L230.220,89.606 L232.883,89.606 L232.883,91.432 C233.433,90.310 234.709,89.364 236.601,89.364 C238.911,89.364 240.540,90.706 240.540,93.874 L240.540,101.113 L237.877,101.113 L237.877,94.116 ZM222.096,101.333 C218.708,101.333 216.200,98.979 216.200,95.480 L216.200,95.304 C216.200,91.740 218.730,89.364 222.118,89.364 C225.485,89.364 228.015,91.718 228.015,95.238 L228.015,95.414 C228.015,99.001 225.485,101.333 222.096,101.333 ZM225.287,95.282 C225.287,92.906 224.099,91.454 222.118,91.454 C220.138,91.454 218.928,92.884 218.928,95.260 L218.928,95.436 C218.928,97.791 220.094,99.265 222.118,99.265 C224.099,99.265 225.287,97.791 225.287,95.436 L225.287,95.282 ZM212.643,87.713 C211.762,87.713 211.058,87.053 211.058,86.195 C211.058,85.315 211.762,84.655 212.643,84.655 C213.523,84.655 214.227,85.315 214.227,86.195 C214.227,87.053 213.523,87.713 212.643,87.713 ZM207.555,101.311 C205.266,101.311 204.078,100.079 204.078,97.901 L204.078,91.608 L202.538,91.608 L202.538,89.606 L204.078,89.606 L204.078,87.075 L206.741,87.075 L206.741,89.606 L209.271,89.606 L209.271,91.608 L206.741,91.608 L206.741,97.659 C206.741,98.671 207.225,99.133 208.061,99.133 C208.589,99.133 208.985,99.067 209.359,98.913 L209.359,101.025 C208.941,101.179 208.369,101.311 207.555,101.311 ZM195.693,101.333 C192.304,101.333 189.796,98.979 189.796,95.480 L189.796,95.304 C189.796,91.740 192.326,89.364 195.715,89.364 C199.081,89.364 201.611,91.718 201.611,95.238 L201.611,95.414 C201.611,99.001 199.081,101.333 195.693,101.333 ZM198.883,95.282 C198.883,92.906 197.695,91.454 195.715,91.454 C193.734,91.454 192.524,92.884 192.524,95.260 L192.524,95.436 C192.524,97.791 193.690,99.265 195.715,99.265 C197.695,99.265 198.883,97.791 198.883,95.436 L198.883,95.282 ZM184.960,94.006 C184.960,92.312 184.234,91.586 182.914,91.586 C181.594,91.586 180.383,92.466 180.383,94.226 L180.383,101.113 L177.721,101.113 L177.721,94.006 C177.721,92.312 176.973,91.586 175.675,91.586 C174.355,91.586 173.144,92.466 173.144,94.226 L173.144,101.113 L170.482,101.113 L170.482,89.606 L173.144,89.606 L173.144,91.366 C173.695,90.288 174.949,89.364 176.643,89.364 C178.139,89.364 179.327,90.002 179.899,91.432 C180.780,90.002 182.364,89.364 183.794,89.364 C185.906,89.364 187.623,90.662 187.623,93.830 L187.623,101.113 L184.960,101.113 L184.960,94.006 ZM165.034,99.705 C164.286,100.695 163.273,101.333 161.513,101.333 C159.401,101.333 157.663,100.321 157.663,97.923 C157.663,95.238 160.259,94.270 163.560,94.270 L164.990,94.270 L164.990,93.676 C164.990,92.136 164.462,91.366 162.899,91.366 C161.513,91.366 160.831,92.026 160.699,93.170 L158.125,93.170 C158.345,90.486 160.479,89.364 163.053,89.364 C165.628,89.364 167.652,90.420 167.652,93.566 L167.652,101.113 L165.034,101.113 L165.034,99.705 ZM164.990,95.943 L163.626,95.943 C161.601,95.943 160.303,96.405 160.303,97.813 C160.303,98.781 160.831,99.419 162.151,99.419 C163.780,99.419 164.990,98.561 164.990,97.087 L164.990,95.943 ZM153.533,101.113 L149.418,94.754 L147.548,94.754 L147.548,101.113 L144.621,101.113 L144.621,85.381 L149.902,85.381 C153.357,85.381 155.777,86.789 155.777,90.002 L155.777,90.090 C155.777,92.554 154.237,93.808 152.278,94.314 L156.701,101.113 L153.533,101.113 ZM152.894,90.156 L152.894,90.068 C152.894,88.263 151.772,87.647 149.902,87.647 L147.548,87.647 L147.548,92.664 L149.902,92.664 C151.860,92.664 152.894,91.828 152.894,90.156 ZM128.276,105.052 L130.366,99.947 L125.811,89.606 L128.694,89.606 L131.752,97.021 L134.569,89.606 L137.165,89.606 L130.894,105.052 L128.276,105.052 ZM120.150,101.333 C118.324,101.333 117.003,100.431 116.387,99.265 L116.387,101.113 L113.725,101.113 L113.725,84.281 L116.387,84.281 L116.387,91.454 C117.025,90.354 118.456,89.364 120.150,89.364 C123.032,89.364 125.255,91.498 125.255,95.216 L125.255,95.392 C125.255,99.089 123.120,101.333 120.150,101.333 ZM122.526,95.260 C122.526,92.708 121.206,91.454 119.468,91.454 C117.619,91.454 116.299,92.708 116.299,95.260 L116.299,95.436 C116.299,98.011 117.553,99.221 119.490,99.221 C121.448,99.221 122.526,97.901 122.526,95.436 L122.526,95.260 ZM214.007,101.113 L211.344,101.113 L211.344,89.606 L214.007,89.606 L214.007,101.113 Z" class="cls-3"/>
    <g>
      <path d="M90.000,69.000 C90.000,93.853 69.853,114.000 45.000,114.000 C20.147,114.000 -0.000,93.853 -0.000,69.000 C-0.000,44.147 20.147,24.000 45.000,24.000 C69.853,24.000 90.000,44.147 90.000,69.000 Z" class="cls-4"/>
      <path d="M46.127,43.379 L46.125,43.379 C41.332,43.379 30.750,43.392 30.750,43.392 L30.750,93.374 L61.502,93.374 L49.521,73.895 C56.378,72.343 61.500,66.189 61.502,58.832 L61.502,58.826 L61.502,58.823 C61.499,50.292 54.617,43.379 46.127,43.379 " class="cls-5"/>
      <path d="M30.750,43.377 L30.750,93.372 L61.502,93.372 L30.750,43.377 Z" class="cls-6"/>
    </g>
  </g>
</svg>
